<?xml version="1.0" encoding="UTF-8"?>
<svg version="1.1" xmlns="http://www.w3.org/2000/svg" width="256" height="256">
<path d="M0 0 C0.83121368 -0.00671722 1.66242737 -0.01343445 2.51882935 -0.02035522 C5.27058873 -0.03937529 8.02210472 -0.04326148 10.77392578 -0.04541016 C12.68580222 -0.05183548 14.59767765 -0.05856364 16.509552 -0.06558228 C20.51941202 -0.0775652 24.52918583 -0.08126207 28.5390625 -0.08007812 C33.67626808 -0.07987492 38.81292055 -0.10717406 43.94999504 -0.14162254 C47.89969418 -0.16386527 51.84925968 -0.16791647 55.79901505 -0.16685867 C57.69284089 -0.16921871 59.58667019 -0.17806485 61.48043442 -0.19352341 C64.13057876 -0.21312965 66.77952366 -0.20736669 69.4296875 -0.1953125 C70.2111615 -0.20655151 70.9926355 -0.21779053 71.79779053 -0.22937012 C75.48457963 -0.18677813 77.64887895 0.16903861 80.80764771 2.13339233 C84.12712485 5.64934711 83.96839318 8.6703478 83.9644928 13.3079071 C83.96655479 15.19465652 83.96655479 15.19465652 83.96865845 17.11952209 C83.9651193 18.51596093 83.96148449 19.91239953 83.95776367 21.30883789 C83.95748164 22.77724201 83.95763984 24.24564626 83.95820618 25.71405029 C83.95849353 29.70342715 83.95260672 33.69277404 83.94563222 37.68214393 C83.93938847 41.85017225 83.93879407 46.01820124 83.93760681 50.18623352 C83.93449652 58.08035936 83.92628718 65.97447138 83.91625732 73.86859113 C83.90508684 82.85518673 83.89958337 91.84178299 83.89456189 100.8283838 C83.88410433 119.31577282 83.8665107 137.80314897 83.84423828 156.29052734 C85.49423828 156.29052734 87.14423828 156.29052734 88.84423828 156.29052734 C88.84423828 117.68052734 88.84423828 79.07052734 88.84423828 39.29052734 C141.84423828 39.29052734 141.84423828 39.29052734 146.84423828 42.29052734 C149.44545904 44.8917481 149.76171573 46.83973448 149.96728611 50.45377731 C149.96636432 51.23914494 149.96544252 52.02451256 149.9644928 52.8336792 C149.96655479 54.19239891 149.96655479 54.19239891 149.96865845 55.5785675 C149.96506317 56.56471542 149.9614679 57.55086334 149.95776367 58.56689453 C149.9579097 59.61111069 149.95805573 60.65532684 149.95820618 61.73118591 C149.95750941 65.18327917 149.94972801 68.63531851 149.94189453 72.08740234 C149.94002951 74.48065156 149.93860601 76.87390115 149.93760681 79.26715088 C149.93378824 85.5668849 149.92396355 91.86659588 149.91290283 98.1663208 C149.90267455 104.59443856 149.89810615 111.02256004 149.89306641 117.45068359 C149.88234072 130.06397497 149.86527218 142.67724924 149.84423828 155.29052734 C154.13423828 155.62052734 158.42423828 155.95052734 162.84423828 156.29052734 C162.84423828 162.89052734 162.84423828 169.49052734 162.84423828 176.29052734 C78.36423828 176.29052734 -6.11576172 176.29052734 -93.15576172 176.29052734 C-93.15576172 169.69052734 -93.15576172 163.09052734 -93.15576172 156.29052734 C-88.20576172 156.29052734 -83.25576172 156.29052734 -78.15576172 156.29052734 C-78.16464417 154.91101395 -78.17352661 153.53150055 -78.18267822 152.11018372 C-78.26372144 139.1174304 -78.32370684 126.12472828 -78.36301041 113.13177967 C-78.38389602 106.45174651 -78.41223197 99.77195679 -78.45751953 93.09204102 C-78.50094158 86.6470457 -78.52489152 80.20224661 -78.53527069 73.75711632 C-78.54266852 71.2966878 -78.55711449 68.83627017 -78.57868195 66.37592506 C-78.60766648 62.93291536 -78.61171965 59.49071926 -78.60986328 56.04760742 C-78.63143494 54.51767403 -78.63143494 54.51767403 -78.65344238 52.95683289 C-78.62811525 48.6232488 -78.55970065 45.99688674 -76.37738037 42.18070984 C-61.83155939 29.80493321 -38.25394894 39.29052734 -19.15576172 39.29052734 C-19.15576172 77.90052734 -19.15576172 116.51052734 -19.15576172 156.29052734 C-17.50576172 156.29052734 -15.85576172 156.29052734 -14.15576172 156.29052734 C-14.1585271 155.5272302 -14.16129248 154.76393305 -14.16414165 153.97750568 C-14.23038494 135.40770204 -14.28003424 116.83792197 -14.31119823 98.2680254 C-14.32666935 89.2877713 -14.34776355 80.30759606 -14.38208008 71.32739258 C-14.41197494 63.50055456 -14.43133494 55.67377366 -14.4380272 47.84688014 C-14.44193932 43.7023049 -14.45113838 39.55789303 -14.47295189 35.41337013 C-14.49331845 31.51214619 -14.49959521 27.61115289 -14.49508476 23.70988083 C-14.49590989 22.27840484 -14.50187467 20.84692111 -14.51337814 19.4154911 C-14.52832302 17.45985627 -14.52292328 15.50409761 -14.51652527 13.54841614 C-14.51929065 12.45424787 -14.52205603 11.36007959 -14.5249052 10.23275471 C-14.10065741 6.85132303 -13.18248766 5.00980438 -11.15576172 2.29052734 C-7.37965834 -0.22687491 -4.37492959 -0.005048 0 0 Z M8.84423828 18.29052734 C3.63117779 26.13770042 3.10192716 34.0964739 3.84423828 43.29052734 C5.7980916 51.70622087 10.36535999 58.39094323 17.61376953 63.08349609 C26.09559068 67.66738146 34.09912345 69.67371189 43.55517578 67.13427734 C52.9622726 63.66681503 58.98064884 57.99661473 63.93798828 49.39208984 C67.35417875 41.89544965 67.01373754 32.62055975 64.28173828 24.97802734 C59.97958383 15.67933562 52.91360692 9.65083737 43.46923828 5.97802734 C29.36810599 3.30367467 18.35985467 7.51913258 8.84423828 18.29052734 Z M-63.15576172 63.29052734 C-63.15576172 67.25052734 -63.15576172 71.21052734 -63.15576172 75.29052734 C-59.19576172 75.29052734 -55.23576172 75.29052734 -51.15576172 75.29052734 C-51.15576172 71.33052734 -51.15576172 67.37052734 -51.15576172 63.29052734 C-55.11576172 63.29052734 -59.07576172 63.29052734 -63.15576172 63.29052734 Z M-43.15576172 63.29052734 C-43.15576172 67.25052734 -43.15576172 71.21052734 -43.15576172 75.29052734 C-39.19576172 75.29052734 -35.23576172 75.29052734 -31.15576172 75.29052734 C-31.15576172 71.33052734 -31.15576172 67.37052734 -31.15576172 63.29052734 C-35.11576172 63.29052734 -39.07576172 63.29052734 -43.15576172 63.29052734 Z M104.84423828 63.29052734 C104.84423828 67.25052734 104.84423828 71.21052734 104.84423828 75.29052734 C108.80423828 75.29052734 112.76423828 75.29052734 116.84423828 75.29052734 C116.84423828 71.33052734 116.84423828 67.37052734 116.84423828 63.29052734 C112.88423828 63.29052734 108.92423828 63.29052734 104.84423828 63.29052734 Z M124.84423828 63.29052734 C124.84423828 67.25052734 124.84423828 71.21052734 124.84423828 75.29052734 C128.80423828 75.29052734 132.76423828 75.29052734 136.84423828 75.29052734 C136.84423828 71.33052734 136.84423828 67.37052734 136.84423828 63.29052734 C132.88423828 63.29052734 128.92423828 63.29052734 124.84423828 63.29052734 Z M-63.15576172 85.29052734 C-63.15576172 89.25052734 -63.15576172 93.21052734 -63.15576172 97.29052734 C-59.19576172 97.29052734 -55.23576172 97.29052734 -51.15576172 97.29052734 C-51.15576172 93.33052734 -51.15576172 89.37052734 -51.15576172 85.29052734 C-55.11576172 85.29052734 -59.07576172 85.29052734 -63.15576172 85.29052734 Z M-43.15576172 85.29052734 C-43.15576172 89.25052734 -43.15576172 93.21052734 -43.15576172 97.29052734 C-39.19576172 97.29052734 -35.23576172 97.29052734 -31.15576172 97.29052734 C-31.15576172 93.33052734 -31.15576172 89.37052734 -31.15576172 85.29052734 C-35.11576172 85.29052734 -39.07576172 85.29052734 -43.15576172 85.29052734 Z M104.84423828 85.29052734 C104.84423828 89.25052734 104.84423828 93.21052734 104.84423828 97.29052734 C108.80423828 97.29052734 112.76423828 97.29052734 116.84423828 97.29052734 C116.84423828 93.33052734 116.84423828 89.37052734 116.84423828 85.29052734 C112.88423828 85.29052734 108.92423828 85.29052734 104.84423828 85.29052734 Z M124.84423828 85.29052734 C124.84423828 89.25052734 124.84423828 93.21052734 124.84423828 97.29052734 C128.80423828 97.29052734 132.76423828 97.29052734 136.84423828 97.29052734 C136.84423828 93.33052734 136.84423828 89.37052734 136.84423828 85.29052734 C132.88423828 85.29052734 128.92423828 85.29052734 124.84423828 85.29052734 Z M-63.15576172 108.29052734 C-63.15576172 112.25052734 -63.15576172 116.21052734 -63.15576172 120.29052734 C-59.19576172 120.29052734 -55.23576172 120.29052734 -51.15576172 120.29052734 C-51.15576172 116.33052734 -51.15576172 112.37052734 -51.15576172 108.29052734 C-55.11576172 108.29052734 -59.07576172 108.29052734 -63.15576172 108.29052734 Z M-43.15576172 108.29052734 C-43.15576172 112.25052734 -43.15576172 116.21052734 -43.15576172 120.29052734 C-39.19576172 120.29052734 -35.23576172 120.29052734 -31.15576172 120.29052734 C-31.15576172 116.33052734 -31.15576172 112.37052734 -31.15576172 108.29052734 C-35.11576172 108.29052734 -39.07576172 108.29052734 -43.15576172 108.29052734 Z M104.84423828 108.29052734 C104.84423828 112.25052734 104.84423828 116.21052734 104.84423828 120.29052734 C108.80423828 120.29052734 112.76423828 120.29052734 116.84423828 120.29052734 C116.84423828 116.33052734 116.84423828 112.37052734 116.84423828 108.29052734 C112.88423828 108.29052734 108.92423828 108.29052734 104.84423828 108.29052734 Z M124.84423828 108.29052734 C124.84423828 112.25052734 124.84423828 116.21052734 124.84423828 120.29052734 C128.80423828 120.29052734 132.76423828 120.29052734 136.84423828 120.29052734 C136.84423828 116.33052734 136.84423828 112.37052734 136.84423828 108.29052734 C132.88423828 108.29052734 128.92423828 108.29052734 124.84423828 108.29052734 Z M17.84423828 109.29052734 C17.84423828 124.80052734 17.84423828 140.31052734 17.84423828 156.29052734 C30.05423828 156.29052734 42.26423828 156.29052734 54.84423828 156.29052734 C54.84423828 140.78052734 54.84423828 125.27052734 54.84423828 109.29052734 C42.63423828 109.29052734 30.42423828 109.29052734 17.84423828 109.29052734 Z " fill="#000000" transform="translate(93.15576171875,39.70947265625)"/>
<path d="M0 0 C5.28 0 10.56 0 16 0 C16 3.96 16 7.92 16 12 C20.29 12 24.58 12 29 12 C29 17.61 29 23.22 29 29 C24.71 29 20.42 29 16 29 C16 32.96 16 36.92 16 41 C10.72 41 5.44 41 0 41 C0 37.04 0 33.08 0 29 C-4.29 29 -8.58 29 -13 29 C-13 23.39 -13 17.78 -13 12 C-8.71 12 -4.42 12 0 12 C0 8.04 0 4.08 0 0 Z " fill="#000000" transform="translate(120,56)"/>
</svg>
